<svg xmlns="http://www.w3.org/2000/svg" xmlns:xlink="http://www.w3.org/1999/xlink" version="1.1" width="256" height="256" viewBox="0 0 256 256" xml:space="preserve">

<defs>
</defs>
<g style="stroke: none; stroke-width: 0; stroke-dasharray: none; stroke-linecap: butt; stroke-linejoin: miter; stroke-miterlimit: 10; fill: none; fill-rule: nonzero; opacity: 1;" transform="translate(1.4065934065934016 1.4065934065934016) scale(2.81 2.81)" >
	<circle cx="45" cy="45" r="45" style="stroke: none; stroke-width: 1; stroke-dasharray: none; stroke-linecap: butt; stroke-linejoin: miter; stroke-miterlimit: 10; fill: rgb(0,170,196); fill-rule: nonzero; opacity: 1;" transform="  matrix(1 0 0 1 0 0) "/>
	<path d="M 16.426 55.871 c 0 -0.823 -3.923 -7.556 -4.055 -8.766 c -0.134 -1.212 0.663 -1.55 1.331 -1.55 c 0.663 0 1.129 0.388 1.129 0.726 s -0.332 0.436 -0.798 0.436 c -0.466 0 0.199 -0.242 -0.199 -0.436 s -0.665 0.29 -0.665 0.582 c 0 0.29 0.997 0.387 1.662 0.169 c 0.134 0.653 0.199 0.703 -0.732 1.816 c 0.667 -0.436 0.73 -0.532 1.465 -0.29 c -0.732 -0.63 -0.184 -1.913 -0.159 -2.24 c 0.025 -0.327 -0.14 -0.715 -0.439 -0.908 c -0.533 -0.484 -1.697 -0.506 -2.395 -0.194 c -0.669 0.299 -0.918 0.98 -0.934 1.535 c -0.017 -0.556 -0.266 -1.237 -0.935 -1.535 c -0.698 -0.312 -1.86 -0.29 -2.393 0.194 c -0.299 0.194 -0.466 0.582 -0.441 0.908 s 0.573 1.61 -0.159 2.24 c 0.734 -0.242 0.8 -0.146 1.465 0.29 c -0.932 -1.113 -0.865 -1.162 -0.732 -1.816 c 0.665 0.217 1.664 0.121 1.664 -0.169 c 0 -0.292 -0.268 -0.776 -0.667 -0.582 c -0.397 0.194 0.267 0.436 -0.197 0.436 c -0.468 0 -0.8 -0.098 -0.8 -0.436 c 0 -0.338 0.466 -0.726 1.131 -0.726 c 0.665 0 1.463 0.338 1.329 1.55 c -0.132 1.211 -4.055 7.944 -4.055 8.766 c 0 0.824 0.73 1.89 2.659 1.89 c 0.012 0.001 0.023 0.001 0.034 0.001 c -0.012 0.001 -0.023 0.001 -0.034 0.001 c -1.929 0 -2.659 1.066 -2.659 1.89 c 0 0.823 3.922 7.556 4.055 8.766 c 0.134 1.212 -0.663 1.55 -1.329 1.55 c -0.665 0 -1.131 -0.388 -1.131 -0.726 c 0 -0.338 0.332 -0.436 0.8 -0.436 c 0.464 0 -0.199 0.242 0.197 0.436 c 0.399 0.194 0.667 -0.29 0.667 -0.582 c 0 -0.29 -0.999 -0.386 -1.664 -0.169 c -0.132 -0.653 -0.199 -0.703 0.732 -1.816 c -0.665 0.436 -0.731 0.532 -1.465 0.29 c 0.732 0.63 0.184 1.914 0.159 2.24 c -0.025 0.327 0.142 0.715 0.441 0.908 c 0.533 0.484 1.695 0.506 2.393 0.194 c 0.669 -0.299 0.918 -0.98 0.935 -1.536 c 0.017 0.556 0.265 1.237 0.934 1.536 c 0.698 0.312 1.862 0.29 2.395 -0.194 c 0.299 -0.194 0.464 -0.582 0.439 -0.908 c -0.025 -0.327 -0.573 -1.61 0.159 -2.24 c -0.734 0.242 -0.797 0.146 -1.465 -0.29 c 0.932 1.113 0.866 1.162 0.732 1.816 c -0.665 -0.217 -1.662 -0.121 -1.662 0.169 c 0 0.292 0.266 0.776 0.665 0.582 c 0.399 -0.194 -0.267 -0.436 0.199 -0.436 c 0.466 0 0.798 0.098 0.798 0.436 c 0 0.338 -0.466 0.726 -1.129 0.726 c -0.667 0 -1.465 -0.338 -1.33 -1.55 c 0.132 -1.211 4.055 -7.944 4.055 -8.766 c 0 -0.824 -0.731 -1.89 -2.659 -1.89 c -0.012 -0.001 -0.023 -0.001 -0.034 -0.001 c 0.012 -0.001 0.023 -0.001 0.034 -0.001 C 15.695 57.761 16.426 56.695 16.426 55.871 z M 9.24 57.131 c -1.198 -0.048 -1.729 -1.162 -1.53 -1.502 l 3.792 -8.186 c 0.077 -0.127 0.126 -0.33 0.134 -0.565 c 0.008 0.235 0.058 0.438 0.135 0.565 l 3.79 8.186 c 0.2 0.34 -0.332 1.454 -1.528 1.502 c -1.263 0.096 -1.697 -1.228 -1.921 -1.801 l 1.722 0.125 c 0 0 0.067 -0.265 0 -0.438 c -0.889 -0.058 -1.722 -0.22 -1.722 -0.22 l -0.065 -0.872 h 0.849 l -0.067 -0.386 c 0 0 -0.717 0.048 -0.782 0 c -0.067 -0.048 -0.134 -0.874 -0.134 -0.874 s -0.132 -0.048 -0.276 -0.048 c -0.146 0 -0.278 0.048 -0.278 0.048 s -0.067 0.826 -0.132 0.874 c -0.067 0.048 -0.784 0 -0.784 0 l -0.065 0.386 h 0.849 l -0.067 0.872 c 0 0 -0.832 0.162 -1.722 0.22 c -0.065 0.172 0 0.438 0 0.438 l 1.722 -0.125 C 10.935 55.903 10.502 57.227 9.24 57.131 z M 13.534 57.762 c -1.079 0.071 -1.434 1.252 -1.859 1.668 c -0.429 -0.416 -0.849 -1.597 -1.937 -1.668 c 1.087 -0.071 1.508 -1.252 1.937 -1.668 v 0 C 12.1 56.51 12.455 57.691 13.534 57.762 z M 14.033 58.394 c 1.196 0.048 1.727 1.162 1.528 1.502 l -3.79 8.186 c -0.077 0.127 -0.127 0.33 -0.135 0.565 c -0.008 -0.235 -0.057 -0.438 -0.134 -0.565 L 7.71 59.896 c -0.199 -0.34 0.332 -1.454 1.53 -1.502 c 1.262 -0.096 1.695 1.228 1.919 1.801 l -1.722 -0.125 c 0 0 -0.065 0.265 0 0.438 c 0.89 0.058 1.722 0.22 1.722 0.22 l 0.067 0.872 h -0.849 l 0.065 0.387 c 0 0 0.717 -0.048 0.784 0 c 0.065 0.048 0.132 0.874 0.132 0.874 s 0.132 0.048 0.278 0.048 c 0.144 0 0.276 -0.048 0.276 -0.048 s 0.067 -0.826 0.134 -0.874 c 0.065 -0.048 0.782 0 0.782 0 l 0.067 -0.387 h -0.849 l 0.065 -0.872 c 0 0 0.832 -0.162 1.722 -0.22 c 0.067 -0.172 0 -0.438 0 -0.438 l -1.722 0.125 C 12.336 59.622 12.77 58.297 14.033 58.394 z" style="stroke: none; stroke-width: 1; stroke-dasharray: none; stroke-linecap: butt; stroke-linejoin: miter; stroke-miterlimit: 10; fill: rgb(246,191,12); fill-rule: nonzero; opacity: 1;" transform=" matrix(1 0 0 1 0 0) " stroke-linecap="round" />
	<path d="M 16.426 30.349 c 0 -0.822 -3.923 -7.556 -4.055 -8.766 c -0.134 -1.212 0.663 -1.55 1.331 -1.55 c 0.663 0 1.129 0.388 1.129 0.726 s -0.332 0.436 -0.798 0.436 c -0.466 0 0.199 -0.242 -0.199 -0.436 c -0.399 -0.194 -0.665 0.29 -0.665 0.582 c 0 0.29 0.997 0.386 1.662 0.169 c 0.134 0.653 0.199 0.703 -0.732 1.816 c 0.667 -0.436 0.73 -0.532 1.465 -0.29 c -0.732 -0.63 -0.184 -1.913 -0.159 -2.24 c 0.025 -0.327 -0.14 -0.715 -0.439 -0.909 c -0.533 -0.484 -1.697 -0.506 -2.395 -0.194 c -0.669 0.299 -0.918 0.979 -0.934 1.535 c -0.017 -0.556 -0.266 -1.237 -0.935 -1.535 c -0.698 -0.312 -1.86 -0.29 -2.393 0.194 c -0.299 0.194 -0.466 0.582 -0.441 0.909 s 0.573 1.61 -0.159 2.24 c 0.734 -0.242 0.8 -0.146 1.465 0.29 c -0.932 -1.113 -0.865 -1.162 -0.732 -1.816 c 0.665 0.217 1.664 0.121 1.664 -0.169 c 0 -0.292 -0.268 -0.776 -0.667 -0.582 c -0.397 0.194 0.267 0.436 -0.197 0.436 c -0.468 0 -0.8 -0.098 -0.8 -0.436 c 0 -0.338 0.466 -0.726 1.131 -0.726 c 0.665 0 1.463 0.338 1.329 1.55 c -0.132 1.21 -4.055 7.944 -4.055 8.766 c 0 0.824 0.73 1.89 2.659 1.89 c 0.011 0.001 0.022 0.001 0.033 0.001 c -0.011 0.001 -0.022 0.001 -0.033 0.001 c -1.929 0 -2.659 1.066 -2.659 1.89 c 0 0.823 3.922 7.556 4.055 8.766 c 0.134 1.212 -0.663 1.55 -1.329 1.55 c -0.665 0 -1.131 -0.388 -1.131 -0.726 s 0.332 -0.436 0.8 -0.436 c 0.464 0 -0.199 0.242 0.197 0.436 c 0.399 0.194 0.667 -0.29 0.667 -0.582 c 0 -0.29 -0.999 -0.386 -1.664 -0.169 c -0.132 -0.653 -0.199 -0.703 0.732 -1.816 c -0.665 0.436 -0.731 0.532 -1.465 0.29 c 0.732 0.63 0.184 1.913 0.159 2.24 c -0.025 0.327 0.142 0.715 0.441 0.909 c 0.533 0.484 1.695 0.506 2.393 0.194 c 0.669 -0.299 0.918 -0.98 0.935 -1.536 c 0.017 0.556 0.265 1.237 0.934 1.536 c 0.698 0.312 1.862 0.29 2.395 -0.194 c 0.299 -0.194 0.464 -0.582 0.439 -0.909 c -0.025 -0.327 -0.573 -1.61 0.159 -2.24 c -0.734 0.242 -0.797 0.146 -1.465 -0.29 c 0.932 1.113 0.866 1.162 0.732 1.816 c -0.665 -0.217 -1.662 -0.121 -1.662 0.169 c 0 0.292 0.266 0.776 0.665 0.582 c 0.399 -0.194 -0.267 -0.436 0.199 -0.436 c 0.466 0 0.798 0.098 0.798 0.436 c 0 0.338 -0.466 0.726 -1.129 0.726 c -0.667 0 -1.465 -0.338 -1.33 -1.55 c 0.132 -1.21 4.055 -7.944 4.055 -8.766 c 0 -0.824 -0.731 -1.89 -2.659 -1.89 c -0.011 -0.001 -0.022 -0.001 -0.033 -0.001 c 0.011 -0.001 0.022 -0.001 0.033 -0.001 C 15.695 32.239 16.426 31.173 16.426 30.349 z M 9.24 31.609 c -1.198 -0.048 -1.729 -1.162 -1.53 -1.502 l 3.792 -8.186 c 0.077 -0.127 0.126 -0.33 0.134 -0.565 c 0.008 0.234 0.058 0.438 0.135 0.565 l 3.79 8.186 c 0.2 0.34 -0.332 1.454 -1.528 1.502 c -1.263 0.096 -1.697 -1.228 -1.921 -1.801 l 1.722 0.125 c 0 0 0.067 -0.265 0 -0.437 c -0.889 -0.058 -1.722 -0.22 -1.722 -0.22 l -0.065 -0.872 h 0.849 l -0.067 -0.386 c 0 0 -0.717 0.048 -0.782 0 c -0.067 -0.048 -0.134 -0.874 -0.134 -0.874 s -0.132 -0.048 -0.276 -0.048 c -0.146 0 -0.278 0.048 -0.278 0.048 s -0.067 0.825 -0.132 0.874 c -0.067 0.048 -0.784 0 -0.784 0 l -0.065 0.386 h 0.849 l -0.067 0.872 c 0 0 -0.832 0.162 -1.722 0.22 c -0.065 0.172 0 0.437 0 0.437 l 1.722 -0.125 C 10.935 30.381 10.502 31.705 9.24 31.609 z M 13.534 32.241 c -1.079 0.071 -1.434 1.252 -1.859 1.668 c -0.429 -0.416 -0.849 -1.597 -1.936 -1.668 c 1.087 -0.072 1.507 -1.252 1.936 -1.668 C 12.1 30.989 12.455 32.169 13.534 32.241 z M 14.033 32.872 c 1.196 0.048 1.727 1.162 1.528 1.502 l -3.79 8.186 c -0.077 0.127 -0.127 0.33 -0.135 0.565 c -0.008 -0.235 -0.057 -0.438 -0.134 -0.565 L 7.71 34.374 c -0.199 -0.34 0.332 -1.454 1.53 -1.502 c 1.262 -0.096 1.695 1.228 1.919 1.801 l -1.722 -0.125 c 0 0 -0.065 0.265 0 0.438 c 0.89 0.058 1.722 0.22 1.722 0.22 l 0.067 0.872 h -0.849 l 0.065 0.386 c 0 0 0.717 -0.048 0.784 0 c 0.065 0.048 0.132 0.874 0.132 0.874 s 0.132 0.048 0.278 0.048 c 0.144 0 0.276 -0.048 0.276 -0.048 s 0.067 -0.825 0.134 -0.874 c 0.065 -0.048 0.782 0 0.782 0 l 0.067 -0.386 h -0.849 l 0.065 -0.872 c 0 0 0.832 -0.162 1.722 -0.22 c 0.067 -0.172 0 -0.438 0 -0.438 l -1.722 0.125 C 12.336 34.1 12.77 32.776 14.033 32.872 z" style="stroke: none; stroke-width: 1; stroke-dasharray: none; stroke-linecap: butt; stroke-linejoin: miter; stroke-miterlimit: 10; fill: rgb(246,191,12); fill-rule: nonzero; opacity: 1;" transform=" matrix(1 0 0 1 0 0) " stroke-linecap="round" />
	<path d="M 63.405 40.228 L 63.405 40.228 c 0 -5.756 -4.925 -10.423 -11 -10.423 s -11 4.666 -11 10.422 v 0.001 c 0 5.756 4.925 10.422 11 10.422 S 63.405 45.984 63.405 40.228 z" style="stroke: none; stroke-width: 1; stroke-dasharray: none; stroke-linecap: butt; stroke-linejoin: miter; stroke-miterlimit: 10; fill: rgb(246,191,12); fill-rule: nonzero; opacity: 1;" transform=" matrix(1 0 0 1 0 0) " stroke-linecap="round" />
	<path d="M 67.182 44.879 c -1.78 -1.095 -3.055 1.365 -0.957 1.901 l 5.123 1.127 C 71.398 47.819 67.921 45.482 67.182 44.879 z" style="stroke: none; stroke-width: 1; stroke-dasharray: none; stroke-linecap: butt; stroke-linejoin: miter; stroke-miterlimit: 10; fill: rgb(246,191,12); fill-rule: nonzero; opacity: 1;" transform=" matrix(1 0 0 1 0 0) " stroke-linecap="round" />
	<path d="M 58.689 27.077 l 0.627 -4.948 h 0 c -0.098 -0.037 -2.173 3.491 -2.725 4.253 C 55.635 28.178 58.355 29.111 58.689 27.077 z" style="stroke: none; stroke-width: 1; stroke-dasharray: none; stroke-linecap: butt; stroke-linejoin: miter; stroke-miterlimit: 10; fill: rgb(246,191,12); fill-rule: nonzero; opacity: 1;" transform=" matrix(1 0 0 1 0 0) " stroke-linecap="round" />
	<path d="M 38.003 45.26 l -4.234 2.957 c 0.038 0.093 4.173 -0.893 5.137 -1.033 C 40.941 46.614 39.795 44.098 38.003 45.26 z" style="stroke: none; stroke-width: 1; stroke-dasharray: none; stroke-linecap: butt; stroke-linejoin: miter; stroke-miterlimit: 10; fill: rgb(246,191,12); fill-rule: nonzero; opacity: 1;" transform=" matrix(1 0 0 1 0 0) " stroke-linecap="round" />
	<path d="M 43.126 52.02 c 1.685 -1.223 -0.335 -3.184 -1.57 -1.491 l -2.837 4.196 C 38.791 54.8 42.279 52.478 43.126 52.02 z" style="stroke: none; stroke-width: 1; stroke-dasharray: none; stroke-linecap: butt; stroke-linejoin: miter; stroke-miterlimit: 10; fill: rgb(246,191,12); fill-rule: nonzero; opacity: 1;" transform=" matrix(1 0 0 1 0 0) " stroke-linecap="round" />
	<path d="M 46.519 26.987 l -3.367 -3.829 c -0.096 0.042 1.188 3.894 1.393 4.797 C 45.267 29.847 47.85 28.614 46.519 26.987 z" style="stroke: none; stroke-width: 1; stroke-dasharray: none; stroke-linecap: butt; stroke-linejoin: miter; stroke-miterlimit: 10; fill: rgb(246,191,12); fill-rule: nonzero; opacity: 1;" transform=" matrix(1 0 0 1 0 0) " stroke-linecap="round" />
	<path d="M 53.121 25.854 l -1.324 -4.823 h -0.001 c -0.106 -0.001 -0.676 4.002 -0.897 4.902 C 50.702 27.936 53.594 27.863 53.121 25.854 z" style="stroke: none; stroke-width: 1; stroke-dasharray: none; stroke-linecap: butt; stroke-linejoin: miter; stroke-miterlimit: 10; fill: rgb(246,191,12); fill-rule: nonzero; opacity: 1;" transform=" matrix(1 0 0 1 0 0) " stroke-linecap="round" />
	<path d="M 66.917 35.595 l 4.44 -2.671 c -0.031 -0.095 -4.228 0.616 -5.2 0.692 C 64.085 34.051 65.044 36.637 66.917 35.595 z" style="stroke: none; stroke-width: 1; stroke-dasharray: none; stroke-linecap: butt; stroke-linejoin: miter; stroke-miterlimit: 10; fill: rgb(246,191,12); fill-rule: nonzero; opacity: 1;" transform=" matrix(1 0 0 1 0 0) " stroke-linecap="round" />
	<path d="M 48.352 54.486 c 1.085 -1.728 -1.56 -2.838 -2.042 -0.832 l -0.988 4.895 v 0 C 45.417 58.593 47.745 55.209 48.352 54.486 z" style="stroke: none; stroke-width: 1; stroke-dasharray: none; stroke-linecap: butt; stroke-linejoin: miter; stroke-miterlimit: 10; fill: rgb(246,191,12); fill-rule: nonzero; opacity: 1;" transform=" matrix(1 0 0 1 0 0) " stroke-linecap="round" />
	<polygon points="68.35,52.98 68.35,52.98 68.35,52.98 " style="stroke: none; stroke-width: 1; stroke-dasharray: none; stroke-linecap: butt; stroke-linejoin: miter; stroke-miterlimit: 10; fill: rgb(246,191,12); fill-rule: nonzero; opacity: 1;" transform="  matrix(1 0 0 1 0 0) "/>
	<path d="M 64.779 49.334 c -1.56 -1.364 -3.253 0.859 -1.281 1.721 l 4.85 1.928 C 68.412 52.903 65.4 50.045 64.779 49.334 z" style="stroke: none; stroke-width: 1; stroke-dasharray: none; stroke-linecap: butt; stroke-linejoin: miter; stroke-miterlimit: 10; fill: rgb(246,191,12); fill-rule: nonzero; opacity: 1;" transform=" matrix(1 0 0 1 0 0) " stroke-linecap="round" />
	<path d="M 63.472 30.213 l 2.522 -4.373 h 0 c -0.076 -0.069 -3.386 2.477 -4.198 2.989 C 60.204 30.159 62.364 31.983 63.472 30.213 z" style="stroke: none; stroke-width: 1; stroke-dasharray: none; stroke-linecap: butt; stroke-linejoin: miter; stroke-miterlimit: 10; fill: rgb(246,191,12); fill-rule: nonzero; opacity: 1;" transform=" matrix(1 0 0 1 0 0) " stroke-linecap="round" />
	<path d="M 41.519 29.805 l -4.655 -2.32 l 0 0.001 c -0.072 0.073 2.668 3.168 3.221 3.929 C 41.514 32.901 43.405 30.826 41.519 29.805 z" style="stroke: none; stroke-width: 1; stroke-dasharray: none; stroke-linecap: butt; stroke-linejoin: miter; stroke-miterlimit: 10; fill: rgb(246,191,12); fill-rule: nonzero; opacity: 1;" transform=" matrix(1 0 0 1 0 0) " stroke-linecap="round" />
	<path d="M 60.456 52.925 c -0.581 -1.934 -3.249 -0.874 -2.04 0.836 l 3.078 4.041 v 0 C 61.593 57.766 60.595 53.839 60.456 52.925 z" style="stroke: none; stroke-width: 1; stroke-dasharray: none; stroke-linecap: butt; stroke-linejoin: miter; stroke-miterlimit: 10; fill: rgb(246,191,12); fill-rule: nonzero; opacity: 1;" transform=" matrix(1 0 0 1 0 0) " stroke-linecap="round" />
	<polygon points="73.11,40.63 73.11,40.63 73.11,40.63 " style="stroke: none; stroke-width: 1; stroke-dasharray: none; stroke-linecap: butt; stroke-linejoin: miter; stroke-miterlimit: 10; fill: rgb(246,191,12); fill-rule: nonzero; opacity: 1;" transform="  matrix(1 0 0 1 0 0) "/>
	<path d="M 37.77 39.262 l -5.174 0.893 c -0.009 0.1 4.162 0.936 5.093 1.211 C 39.782 41.702 39.92 38.964 37.77 39.262 z" style="stroke: none; stroke-width: 1; stroke-dasharray: none; stroke-linecap: butt; stroke-linejoin: miter; stroke-miterlimit: 10; fill: rgb(246,191,12); fill-rule: nonzero; opacity: 1;" transform=" matrix(1 0 0 1 0 0) " stroke-linecap="round" />
	<path d="M 67.981 41.709 l 5.13 -1.078 c 0.002 -0.1 -4.2 -0.786 -5.141 -1.028 C 65.863 39.342 65.847 42.083 67.981 41.709 z" style="stroke: none; stroke-width: 1; stroke-dasharray: none; stroke-linecap: butt; stroke-linejoin: miter; stroke-miterlimit: 10; fill: rgb(246,191,12); fill-rule: nonzero; opacity: 1;" transform=" matrix(1 0 0 1 0 0) " stroke-linecap="round" />
	<path d="M 54.068 54.946 c 0.344 -1.985 -2.546 -2.102 -2.222 -0.067 l 0.968 4.898 v 0 C 52.92 59.785 53.782 55.829 54.068 54.946 z" style="stroke: none; stroke-width: 1; stroke-dasharray: none; stroke-linecap: butt; stroke-linejoin: miter; stroke-miterlimit: 10; fill: rgb(246,191,12); fill-rule: nonzero; opacity: 1;" transform=" matrix(1 0 0 1 0 0) " stroke-linecap="round" />
	<path d="M 37.866 35.976 c 1.856 0.976 2.947 -1.563 0.816 -1.959 l -5.194 -0.788 C 33.444 33.32 37.085 35.423 37.866 35.976 z" style="stroke: none; stroke-width: 1; stroke-dasharray: none; stroke-linecap: butt; stroke-linejoin: miter; stroke-miterlimit: 10; fill: rgb(246,191,12); fill-rule: nonzero; opacity: 1;" transform=" matrix(1 0 0 1 0 0) " stroke-linecap="round" />
	<path d="M 48.788 54.461 l -0.092 4.982 c 0.101 0.028 1.786 -3.683 2.254 -4.493 C 51.708 53.071 48.902 52.406 48.788 54.461 z" style="stroke: none; stroke-width: 1; stroke-dasharray: none; stroke-linecap: butt; stroke-linejoin: miter; stroke-miterlimit: 10; fill: rgb(246,191,12); fill-rule: nonzero; opacity: 1;" transform=" matrix(1 0 0 1 0 0) " stroke-linecap="round" />
	<path d="M 40.8 49.835 c 1.855 -0.978 0.155 -3.197 -1.326 -1.691 l -3.448 3.763 C 36.086 51.991 39.893 50.172 40.8 49.835 z" style="stroke: none; stroke-width: 1; stroke-dasharray: none; stroke-linecap: butt; stroke-linejoin: miter; stroke-miterlimit: 10; fill: rgb(246,191,12); fill-rule: nonzero; opacity: 1;" transform=" matrix(1 0 0 1 0 0) " stroke-linecap="round" />
	<polygon points="42.24,57.18 42.24,57.18 42.24,57.18 " style="stroke: none; stroke-width: 1; stroke-dasharray: none; stroke-linecap: butt; stroke-linejoin: miter; stroke-miterlimit: 10; fill: rgb(246,191,12); fill-rule: nonzero; opacity: 1;" transform="  matrix(1 0 0 1 0 0) "/>
	<path d="M 55.28 54.649 l 2.1 4.569 v 0 c 0.104 -0.015 0.011 -4.053 0.081 -4.974 C 57.328 52.237 54.483 52.735 55.28 54.649 z" style="stroke: none; stroke-width: 1; stroke-dasharray: none; stroke-linecap: butt; stroke-linejoin: miter; stroke-miterlimit: 10; fill: rgb(246,191,12); fill-rule: nonzero; opacity: 1;" transform=" matrix(1 0 0 1 0 0) " stroke-linecap="round" />
	<path d="M 45.742 53.472 c 1.289 -1.598 -1.204 -2.99 -1.927 -1.049 l -1.578 4.754 C 42.326 57.231 45.051 54.124 45.742 53.472 z" style="stroke: none; stroke-width: 1; stroke-dasharray: none; stroke-linecap: butt; stroke-linejoin: miter; stroke-miterlimit: 10; fill: rgb(246,191,12); fill-rule: nonzero; opacity: 1;" transform=" matrix(1 0 0 1 0 0) " stroke-linecap="round" />
	<path d="M 66.165 47.183 c -1.557 -1.367 -3.255 0.853 -1.285 1.719 l 4.846 1.937 C 69.789 50.758 66.784 47.896 66.165 47.183 z" style="stroke: none; stroke-width: 1; stroke-dasharray: none; stroke-linecap: butt; stroke-linejoin: miter; stroke-miterlimit: 10; fill: rgb(246,191,12); fill-rule: nonzero; opacity: 1;" transform=" matrix(1 0 0 1 0 0) " stroke-linecap="round" />
	<path d="M 62.69 51.375 c -0.937 -1.805 -3.362 -0.31 -1.85 1.168 l 3.791 3.454 C 64.722 55.946 62.998 52.251 62.69 51.375 z" style="stroke: none; stroke-width: 1; stroke-dasharray: none; stroke-linecap: butt; stroke-linejoin: miter; stroke-miterlimit: 10; fill: rgb(246,191,12); fill-rule: nonzero; opacity: 1;" transform=" matrix(1 0 0 1 0 0) " stroke-linecap="round" />
	<path d="M 37.214 41.978 l -4.837 1.957 c 0.015 0.099 4.278 0.039 5.25 0.112 C 39.746 43.935 39.24 41.236 37.214 41.978 z" style="stroke: none; stroke-width: 1; stroke-dasharray: none; stroke-linecap: butt; stroke-linejoin: miter; stroke-miterlimit: 10; fill: rgb(246,191,12); fill-rule: nonzero; opacity: 1;" transform=" matrix(1 0 0 1 0 0) " stroke-linecap="round" />
	<path d="M 44.084 28.215 l -4.035 -3.197 c -0.086 0.057 1.903 3.63 2.275 4.484 C 43.392 31.241 45.701 29.59 44.084 28.215 z" style="stroke: none; stroke-width: 1; stroke-dasharray: none; stroke-linecap: butt; stroke-linejoin: miter; stroke-miterlimit: 10; fill: rgb(246,191,12); fill-rule: nonzero; opacity: 1;" transform=" matrix(1 0 0 1 0 0) " stroke-linecap="round" />
	<path d="M 56.197 26.271 l -0.274 -4.976 v 0 c -0.103 -0.021 -1.512 3.792 -1.919 4.631 C 53.386 27.85 56.234 28.329 56.197 26.271 z" style="stroke: none; stroke-width: 1; stroke-dasharray: none; stroke-linecap: butt; stroke-linejoin: miter; stroke-miterlimit: 10; fill: rgb(246,191,12); fill-rule: nonzero; opacity: 1;" transform=" matrix(1 0 0 1 0 0) " stroke-linecap="round" />
	<path d="M 49.669 26.09 l -2.429 -4.42 H 47.24 c -0.103 0.021 0.286 4.044 0.283 4.968 C 47.803 28.632 50.605 27.948 49.669 26.09 z" style="stroke: none; stroke-width: 1; stroke-dasharray: none; stroke-linecap: butt; stroke-linejoin: miter; stroke-miterlimit: 10; fill: rgb(246,191,12); fill-rule: nonzero; opacity: 1;" transform=" matrix(1 0 0 1 0 0) " stroke-linecap="round" />
	<path d="M 37.299 38.299 c 1.999 0.675 2.638 -1.998 0.467 -2.059 l -5.259 0.027 C 32.479 36.363 36.433 37.874 37.299 38.299 z" style="stroke: none; stroke-width: 1; stroke-dasharray: none; stroke-linecap: butt; stroke-linejoin: miter; stroke-miterlimit: 10; fill: rgb(246,191,12); fill-rule: nonzero; opacity: 1;" transform=" matrix(1 0 0 1 0 0) " stroke-linecap="round" />
	<path d="M 38.628 33.433 c 1.654 1.261 3.185 -1.065 1.156 -1.799 l -4.976 -1.614 C 34.748 30.103 37.957 32.763 38.628 33.433 z" style="stroke: none; stroke-width: 1; stroke-dasharray: none; stroke-linecap: butt; stroke-linejoin: miter; stroke-miterlimit: 10; fill: rgb(246,191,12); fill-rule: nonzero; opacity: 1;" transform=" matrix(1 0 0 1 0 0) " stroke-linecap="round" />
	<path d="M 65.457 32.722 l 3.716 -3.527 l 0 0 c -0.053 -0.087 -3.984 1.477 -4.914 1.753 C 62.337 31.802 63.87 34.126 65.457 32.722 z" style="stroke: none; stroke-width: 1; stroke-dasharray: none; stroke-linecap: butt; stroke-linejoin: miter; stroke-miterlimit: 10; fill: rgb(246,191,12); fill-rule: nonzero; opacity: 1;" transform=" matrix(1 0 0 1 0 0) " stroke-linecap="round" />
	<path d="M 61.146 28.46 l 1.922 -4.638 c -0.086 -0.059 -3.031 2.86 -3.768 3.465 C 57.898 28.796 60.282 30.348 61.146 28.46 z" style="stroke: none; stroke-width: 1; stroke-dasharray: none; stroke-linecap: butt; stroke-linejoin: miter; stroke-miterlimit: 10; fill: rgb(246,191,12); fill-rule: nonzero; opacity: 1;" transform=" matrix(1 0 0 1 0 0) " stroke-linecap="round" />
	<path d="M 67.698 38.861 l 4.969 -1.634 h 0 c -0.007 -0.1 -4.265 -0.32 -5.229 -0.457 C 65.315 36.742 65.622 39.467 67.698 38.861 z" style="stroke: none; stroke-width: 1; stroke-dasharray: none; stroke-linecap: butt; stroke-linejoin: miter; stroke-miterlimit: 10; fill: rgb(246,191,12); fill-rule: nonzero; opacity: 1;" transform=" matrix(1 0 0 1 0 0) " stroke-linecap="round" />
	<path d="M 72.388 44.888 c 0.034 -0.095 -3.799 -1.862 -4.632 -2.343 c -1.945 -0.805 -2.778 1.82 -0.617 2.023 L 72.388 44.888 L 72.388 44.888 z" style="stroke: none; stroke-width: 1; stroke-dasharray: none; stroke-linecap: butt; stroke-linejoin: miter; stroke-miterlimit: 10; fill: rgb(246,191,12); fill-rule: nonzero; opacity: 1;" transform=" matrix(1 0 0 1 0 0) " stroke-linecap="round" />
	<polygon points="69.73,50.84 69.73,50.84 69.73,50.84 " style="stroke: none; stroke-width: 1; stroke-dasharray: none; stroke-linecap: butt; stroke-linejoin: miter; stroke-miterlimit: 10; fill: rgb(246,191,12); fill-rule: nonzero; opacity: 1;" transform="  matrix(1 0 0 1 0 0) "/>
	<polygon points="63.07,23.82 63.07,23.82 63.07,23.82 " style="stroke: none; stroke-width: 1; stroke-dasharray: none; stroke-linecap: butt; stroke-linejoin: miter; stroke-miterlimit: 10; fill: rgb(246,191,12); fill-rule: nonzero; opacity: 1;" transform="  matrix(1 0 0 1 0 0) "/>
	<path d="M 46.78 66.735 c 0.555 -0.214 1.311 -0.618 1.479 -0.842 c 0.202 -0.319 -0.014 -0.935 -0.417 -0.56 c -0.404 0.344 -0.891 0.601 -1.346 0.779 c -0.456 0.179 -1.745 0.569 -2.229 0.603 c -0.35 0.474 -0.072 0.671 0.544 0.595 v 0 C 45.28 67.34 45.973 66.989 46.78 66.735 z" style="stroke: none; stroke-width: 1; stroke-dasharray: none; stroke-linecap: butt; stroke-linejoin: miter; stroke-miterlimit: 10; fill: rgb(246,191,12); fill-rule: nonzero; opacity: 1;" transform=" matrix(1 0 0 1 0 0) " stroke-linecap="round" />
	<path d="M 76.788 53.429 c -0.102 -0.336 2.389 -0.481 4.22 -2.019 c 1.83 -1.538 2.339 -4.037 2.085 -4.133 c -0.254 -0.096 -0.458 1.73 -2.39 2.98 c -1.932 1.25 -3.763 1.01 -4.017 0.769 c -0.254 -0.24 1.373 -1.298 2.746 -2.787 c 1.373 -1.49 2.339 -4.662 2.186 -4.95 c -0.152 -0.289 -0.966 1.057 -1.83 2.547 c -0.864 1.49 -3.406 3.508 -3.661 3.172 c -0.254 -0.337 0.763 -1.105 1.627 -2.643 c 0.865 -1.538 2.237 -5.479 1.729 -5.479 c -0.509 0 -1.322 2.403 -2.339 4.71 c -1.017 2.307 -3.559 4.181 -3.712 3.989 c -0.153 -0.192 0.407 -2.355 0.458 -3.076 c 0.051 -0.721 -0.203 -1.346 -0.458 -1.202 c -0.254 0.144 0.61 0.384 -1.17 3.653 c -1.779 3.268 -8.44 8.026 -10.83 9.516 c -2.39 1.49 -9.66 4.277 -10.169 4.566 c -1.169 0.529 -0.915 1.153 -1.83 1.634 c -0.61 0.337 -0.966 0.625 -0.559 1.057 v 0 c 0.051 0.144 3.712 -1.538 4.068 -1.634 c 0.966 -0.336 0.966 -0.913 3 -1.442 c 1.118 -0.529 1.322 -1.105 2.441 -1.49 c 0.712 -0.288 4.474 -1.778 5.593 -2.451 c 1.119 -0.673 5.644 -4.95 7.017 -5.719 c 1.373 -0.769 4.678 -1.25 5.644 -0.961 c 0.61 0.48 -2.135 1.49 -2.237 2.115 c 0.102 0.481 0.763 -0.289 1.322 -0.241 c 0.559 0.048 -3.05 2.451 -2.847 2.643 c 0.203 0.192 1.881 -0.529 2.085 -0.337 c 0.203 0.192 -3.407 1.538 -3.305 1.826 c 0.102 0.288 2.135 -0.769 2.237 -0.529 c 0.102 0.24 -3.915 1.634 -3.813 1.826 c 0.254 -0.048 3.05 -0.673 3.152 -0.48 c 0.102 0.192 -6.203 1.922 -6.305 2.259 c -0.102 0.336 0.915 -0.096 0.966 0 c 0.051 0.096 -2.898 1.394 -3.051 1.73 c -0.153 0.336 1.424 -0.24 1.576 -0.096 c 0.152 0.144 -1.932 0.769 -1.882 1.057 c 0.051 0.288 3.153 -0.192 3.203 -0.048 c 0.051 0.144 -5.44 1.49 -5.39 2.018 c 0.051 0.529 9 -2.355 9.051 -2.884 c 0.051 -0.529 -4.118 0.529 -3.966 0.24 c 0.153 -0.288 7.932 -2.163 7.983 -2.307 c 0.051 -0.144 -3.051 0.432 -3.051 0.337 c 0 -0.096 3.864 -1.009 3.915 -1.153 c 0.051 -0.144 -7.474 1.586 -7.423 1.442 c 0.051 -0.144 8.542 -2.403 8.643 -2.595 c 0.102 -0.192 -4.983 0.961 -5.034 0.865 c -0.051 -0.096 6.101 -1.826 6.203 -2.067 c 0.102 -0.24 -4.525 0.865 -4.474 0.625 c 0.051 -0.241 4.83 -1.106 4.83 -1.298 s -3.661 0.384 -3.61 0.241 c 0.051 -0.144 1.068 -0.817 3.101 -1.298 c 2.034 -0.48 3.356 -1.538 3.305 -1.97 c -0.254 -0.288 -1.932 1.009 -3.712 1.394 c -1.779 0.384 -2.898 0.336 -2.898 0.144 c 0.051 -0.241 6.661 -2.691 6.763 -3.076 C 82.076 52.035 76.89 53.765 76.788 53.429 z" style="stroke: none; stroke-width: 1; stroke-dasharray: none; stroke-linecap: butt; stroke-linejoin: miter; stroke-miterlimit: 10; fill: rgb(246,191,12); fill-rule: nonzero; opacity: 1;" transform=" matrix(1 0 0 1 0 0) " stroke-linecap="round" />
	<path d="M 49.688 68.375 c 0.763 0.048 2.492 -0.384 3.305 -0.384 s 0.966 0.096 1.068 -0.241 c 0.102 -0.336 -2.542 -0.096 -3.712 -0.144 c -0.894 -0.037 -1.966 0.123 -2.808 0.2 c 0.07 -0.076 0.113 -0.17 0.113 -0.272 v 0 c 0 -0.252 -0.25 -0.456 -0.559 -0.456 s -0.559 0.204 -0.559 0.456 v 0 c 0 0.116 0.055 0.221 0.142 0.301 c -0.83 -0.065 -2.129 -0.256 -2.938 0.059 h 0 c -0.61 0.289 -1.169 1.057 -0.814 1.346 c 0.204 0.384 0.814 -0.817 1.322 -0.769 c 0.509 0.048 1.22 0.048 2.593 0.145 C 48.214 68.711 48.926 68.327 49.688 68.375 z" style="stroke: none; stroke-width: 1; stroke-dasharray: none; stroke-linecap: butt; stroke-linejoin: miter; stroke-miterlimit: 10; fill: rgb(246,191,12); fill-rule: nonzero; opacity: 1;" transform=" matrix(1 0 0 1 0 0) " stroke-linecap="round" />
	<path d="M 49.688 63.135 c 0.559 -0.048 0.509 -0.625 0.509 -0.625 s -7.779 -0.913 -12.355 -5.046 c -4.576 -4.133 -4.627 -8.459 -4.83 -9.228 h 0 c -0.051 -0.721 -0.305 -2.403 -0.458 -2.259 c -0.356 0.096 -0.763 0.961 -0.559 2.355 c 0.203 1.394 0.61 1.874 0.356 1.97 c -0.254 0.096 -1.424 -1.922 -1.83 -4.277 c -0.407 -2.355 0.203 -3.268 0.153 -3.316 c -0.051 -0.048 -0.356 0.144 -0.661 0.769 c -0.305 0.625 -0.152 2.595 0.305 4.662 c 0.458 2.067 1.068 2.884 1.068 2.884 s -0.915 -0.48 -1.576 -2.067 c -0.661 -1.586 -0.661 -3.316 -0.864 -3.22 c -0.203 0.096 -0.305 1.394 0.559 3.604 c 0.864 2.211 1.83 3.605 1.83 3.605 s 1.068 -0.673 1.373 -0.673 c 0.305 0 0.508 0.913 1.424 2.307 c 0.915 1.394 3.661 4.229 4.474 4.71 c 0.814 0.481 2.695 2.355 3.101 2.403 c 0.407 0.048 0.661 -0.384 0.814 -0.432 c 0.153 -0.048 1.322 0.625 2.644 1.009 C 46.485 62.655 49.129 63.184 49.688 63.135 z" style="stroke: none; stroke-width: 1; stroke-dasharray: none; stroke-linecap: butt; stroke-linejoin: miter; stroke-miterlimit: 10; fill: rgb(246,191,12); fill-rule: nonzero; opacity: 1;" transform=" matrix(1 0 0 1 0 0) " stroke-linecap="round" />
	<path d="M 35.502 61.837 c -1.22 -1.057 -4.22 -3.557 -4.474 -3.701 c -0.254 -0.144 -0.915 -0.096 -0.915 -0.24 s 0.864 0.096 0.814 0 c -0.051 -0.096 -1.22 -0.577 -1.17 -0.673 c 0.051 -0.096 0.814 0.192 0.814 0.096 c 0 -0.096 -1.373 -0.817 -1.322 -0.961 c 0.051 -0.144 1.017 0.432 1.017 0.337 c 0 -0.096 -1.322 -0.961 -1.271 -1.105 c 0.051 -0.144 1.017 0.673 0.966 0.481 c -0.051 -0.192 -0.763 -1.202 -0.763 -1.346 c 0 -0.144 1.17 1.057 1.271 0.817 c 0.102 -0.24 -0.407 -2.211 -0.356 -2.259 c 0.051 -0.048 0.861 0.437 1.013 0.149 c 0.152 -0.288 -0.598 -0.689 -1.319 -1.254 l 0 0 c -0.864 -0.769 -2.237 -3.46 -2.542 -3.316 c -0.305 0.144 2.237 3.989 2.288 4.326 c 0.051 0.336 0.61 1.394 0.203 1.249 c -0.407 -0.144 -3.457 -3.172 -3.101 -2.595 s 2.644 3.22 2.491 3.364 s -1.881 -1.442 -1.932 -1.249 c -0.051 0.192 1.729 1.778 1.678 1.97 c -0.051 0.192 -1.119 -1.009 -1.119 -0.769 c 0 0.24 1.119 1.442 1.119 1.634 c 0 0.192 -0.966 -0.865 -0.661 -0.288 c 0.305 0.577 1.169 1.105 1.118 1.298 c -0.051 0.192 -0.712 -0.241 -0.712 -0.144 c 0 0.096 1.271 0.529 1.576 0.865 c 0.305 0.336 2.39 2.595 3.966 3.749 c 1.576 1.153 6.051 3.124 6.356 3.124 c 0.305 0 0.763 -0.625 0.661 -0.865 C 41.095 64.288 36.722 62.894 35.502 61.837 z" style="stroke: none; stroke-width: 1; stroke-dasharray: none; stroke-linecap: butt; stroke-linejoin: miter; stroke-miterlimit: 10; fill: rgb(246,191,12); fill-rule: nonzero; opacity: 1;" transform=" matrix(1 0 0 1 0 0) " stroke-linecap="round" />
	<path d="M 63.717 67.268 c -1.032 -0.24 -2.525 -0.721 -3.084 -0.625 l 0 0 c -0.3 -0.048 -3.228 1.057 -7.021 2.019 c -2.064 0.48 -3.458 -0.192 -3.905 0.096 c -0.446 0.289 -0.009 1.105 -0.121 1.394 c -0.111 0.289 -0.715 0.289 -0.548 0.577 c 0.168 0.289 0.781 -0.048 1.004 -0.048 c 0.223 0 0.737 -0.24 0.792 -0.24 c 0.056 0 -0.179 0.384 0.045 0.432 c 0.223 0.048 0.569 -0.288 0.681 -0.288 c 0.111 0 -0.235 0.48 0.044 0.577 c 0.279 0.096 0.671 -0.529 0.783 -0.577 c 0.111 -0.048 0.11 0.432 0.389 0.432 c 0.279 0 0.28 -0.48 0.392 -0.529 c 0.112 -0.048 0.11 0.673 0.5 0.721 c 0.391 0.048 0.281 -0.625 0.392 -0.625 c 0.112 0 0.278 0.673 0.5 0.673 c 0.223 0 0.058 -0.721 0.392 -0.673 c 0.335 0.048 0.389 0.769 0.724 0.769 c 0.335 0 -0.06 -0.721 0.276 -0.769 c 0.335 -0.048 0.394 0.721 0.84 0.769 c 0.446 0.048 0.108 -0.721 0.438 -0.769 c 0.279 -0.048 0.399 0.577 0.733 0.577 s 0.164 -0.577 0.331 -0.577 c 0.167 0 0.561 0.48 0.896 0.48 c 0.335 0 0.094 -0.576 0.317 -0.576 c 0.223 0 1.133 0.432 1.468 0.384 c 0.335 -0.048 -0.662 -0.576 -0.159 -0.528 c 0.502 0.048 1.442 0.336 1.833 0.288 c 0.39 -0.048 -0.489 -0.576 -0.21 -0.673 c 0.279 -0.096 0.935 0.241 1.325 0.096 c 0.391 -0.144 -0.226 -0.481 0.108 -0.528 c 0.335 -0.048 1.342 0.192 1.566 0.096 c 0.223 -0.096 -1.227 -0.384 -1.004 -0.529 c 0.223 -0.144 1.562 0.432 2.008 0.24 c 0.425 -0.183 -0.971 -0.802 -1.153 -0.86 c 0.203 0.041 1.997 0.328 2.776 0.283 c 0.837 -0.048 1.055 -0.48 1.055 -0.817 S 65.613 67.941 63.717 67.268 z" style="stroke: none; stroke-width: 1; stroke-dasharray: none; stroke-linecap: butt; stroke-linejoin: miter; stroke-miterlimit: 10; fill: rgb(246,191,12); fill-rule: nonzero; opacity: 1;" transform=" matrix(1 0 0 1 0 0) " stroke-linecap="round" />
	<path d="M 13.663 12.821 c 1.196 0.048 1.127 0.992 0.928 1.331 l -2.816 2.888 c -0.077 0.127 -0.126 0.33 -0.135 0.565 c -0.008 -0.235 -0.057 -0.438 -0.134 -0.565 l -0.96 -0.977 c -0.088 0.105 -0.181 0.204 -0.268 0.31 c 0.34 0.335 0.59 0.674 0.626 1.005 c 0.134 1.212 -0.663 1.55 -1.329 1.55 c -0.441 0 -0.778 -0.175 -0.966 -0.388 c -0.118 0.162 -0.232 0.326 -0.348 0.489 c 0.018 0.014 0.031 0.033 0.05 0.045 c 0.533 0.484 1.695 0.506 2.393 0.194 c 0.669 -0.299 0.917 -0.979 0.935 -1.535 c 0.017 0.556 0.265 1.237 0.934 1.535 c 0.698 0.312 1.862 0.29 2.395 -0.194 c 0.299 -0.194 0.464 -0.582 0.439 -0.909 c -0.025 -0.327 -0.573 -1.61 0.159 -2.24 c -0.734 0.242 -0.798 0.146 -1.465 -0.29 c 0.932 1.113 0.866 1.162 0.732 1.816 c -0.665 -0.217 -1.662 -0.121 -1.662 0.169 c 0 0.292 0.267 0.776 0.665 0.582 c 0.399 -0.194 -0.267 -0.436 0.199 -0.436 s 0.798 0.098 0.798 0.436 s -0.466 0.726 -1.129 0.726 c -0.667 0 -1.465 -0.338 -1.331 -1.55 c 0.132 -1.21 3.006 -2.361 3.006 -3.184 c 0 -0.7 -0.052 -1.651 -1.249 -1.923 c -0.197 0.186 -0.394 0.371 -0.588 0.561 C 13.585 12.832 13.62 12.818 13.663 12.821 z" style="stroke: none; stroke-width: 1; stroke-dasharray: none; stroke-linecap: butt; stroke-linejoin: miter; stroke-miterlimit: 10; fill: rgb(246,191,12); fill-rule: nonzero; opacity: 1;" transform=" matrix(1 0 0 1 0 0) " stroke-linecap="round" />
	<path d="M 9.244 17.767 c 0.464 0 -0.199 0.242 0.197 0.436 c 0.399 0.194 0.667 -0.29 0.667 -0.582 c 0 -0.147 -0.256 -0.243 -0.595 -0.275 c -0.111 0.142 -0.225 0.282 -0.334 0.425 C 9.202 17.77 9.221 17.767 9.244 17.767 z" style="stroke: none; stroke-width: 1; stroke-dasharray: none; stroke-linecap: butt; stroke-linejoin: miter; stroke-miterlimit: 10; fill: rgb(246,191,12); fill-rule: nonzero; opacity: 1;" transform=" matrix(1 0 0 1 0 0) " stroke-linecap="round" />
	<path d="M 11.647 14.792 c 0.032 0.083 0.064 0.165 0.095 0.228 c 0.051 -0.13 0.115 -0.322 0.194 -0.535 C 11.841 14.588 11.742 14.688 11.647 14.792 z" style="stroke: none; stroke-width: 1; stroke-dasharray: none; stroke-linecap: butt; stroke-linejoin: miter; stroke-miterlimit: 10; fill: rgb(246,191,12); fill-rule: nonzero; opacity: 1;" transform=" matrix(1 0 0 1 0 0) " stroke-linecap="round" />
	<path d="M 15.567 74.074 c -0.732 -0.63 -0.184 -1.913 -0.159 -2.24 c 0.025 -0.327 -0.14 -0.715 -0.439 -0.909 c -0.533 -0.484 -1.697 -0.506 -2.395 -0.194 c -0.669 0.299 -0.918 0.98 -0.934 1.536 c -0.017 -0.556 -0.266 -1.237 -0.935 -1.536 c -0.698 -0.312 -1.86 -0.29 -2.393 0.194 c -0.019 0.012 -0.033 0.031 -0.051 0.045 c 0.116 0.163 0.23 0.327 0.348 0.489 c 0.188 -0.213 0.526 -0.388 0.966 -0.388 c 0.665 0 1.463 0.338 1.329 1.55 c -0.036 0.331 -0.286 0.67 -0.626 1.006 c 0.087 0.105 0.18 0.205 0.268 0.31 l 0.96 -0.977 c 0.077 -0.127 0.126 -0.331 0.134 -0.565 c 0.008 0.235 0.058 0.439 0.135 0.565 l 2.816 2.888 c 0.199 0.34 0.268 1.283 -0.928 1.331 c -0.043 0.003 -0.078 -0.011 -0.119 -0.012 c 0.194 0.189 0.391 0.375 0.588 0.561 c 1.197 -0.271 1.249 -1.222 1.249 -1.923 c 0 -0.823 -2.874 -1.973 -3.006 -3.184 c -0.134 -1.212 0.663 -1.55 1.331 -1.55 c 0.663 0 1.129 0.388 1.129 0.726 c 0 0.338 -0.332 0.436 -0.797 0.436 s 0.199 -0.242 -0.199 -0.436 c -0.399 -0.194 -0.665 0.29 -0.665 0.582 c 0 0.29 0.997 0.386 1.662 0.169 c 0.134 0.653 0.2 0.703 -0.732 1.816 C 14.769 73.928 14.833 73.832 15.567 74.074 z" style="stroke: none; stroke-width: 1; stroke-dasharray: none; stroke-linecap: butt; stroke-linejoin: miter; stroke-miterlimit: 10; fill: rgb(246,191,12); fill-rule: nonzero; opacity: 1;" transform=" matrix(1 0 0 1 0 0) " stroke-linecap="round" />
	<path d="M 9.18 72.229 c 0.109 0.144 0.223 0.283 0.334 0.425 c 0.339 -0.032 0.595 -0.129 0.595 -0.275 c 0 -0.292 -0.268 -0.776 -0.667 -0.582 c -0.397 0.194 0.266 0.436 -0.198 0.436 C 9.221 72.233 9.202 72.23 9.18 72.229 z" style="stroke: none; stroke-width: 1; stroke-dasharray: none; stroke-linecap: butt; stroke-linejoin: miter; stroke-miterlimit: 10; fill: rgb(246,191,12); fill-rule: nonzero; opacity: 1;" transform=" matrix(1 0 0 1 0 0) " stroke-linecap="round" />
	<path d="M 11.648 75.208 c 0.094 0.104 0.193 0.204 0.289 0.307 c -0.079 -0.213 -0.143 -0.406 -0.194 -0.536 C 11.711 75.043 11.68 75.124 11.648 75.208 z" style="stroke: none; stroke-width: 1; stroke-dasharray: none; stroke-linecap: butt; stroke-linejoin: miter; stroke-miterlimit: 10; fill: rgb(246,191,12); fill-rule: nonzero; opacity: 1;" transform=" matrix(1 0 0 1 0 0) " stroke-linecap="round" />
</g>
</svg>