<svg xmlns="http://www.w3.org/2000/svg" xmlns:xlink="http://www.w3.org/1999/xlink" version="1.1" width="256" height="256" viewBox="0 0 256 256" xml:space="preserve">

<defs>
</defs>
<g style="stroke: none; stroke-width: 0; stroke-dasharray: none; stroke-linecap: butt; stroke-linejoin: miter; stroke-miterlimit: 10; fill: none; fill-rule: nonzero; opacity: 1;" transform="translate(1.4065934065934016 1.4065934065934016) scale(2.81 2.81)" >
	<circle cx="45" cy="45" r="45" style="stroke: none; stroke-width: 1; stroke-dasharray: none; stroke-linecap: butt; stroke-linejoin: miter; stroke-miterlimit: 10; fill: rgb(0,78,0); fill-rule: nonzero; opacity: 1;" transform="  matrix(1 0 0 1 0 0) "/>
	<path d="M 0 44.993 v 0.015 c 0.003 20.494 13.711 37.775 32.455 43.207 V 2.527 h -2.326 C 12.588 8.669 0.003 25.356 0 44.993 z" style="stroke: none; stroke-width: 1; stroke-dasharray: none; stroke-linecap: butt; stroke-linejoin: miter; stroke-miterlimit: 10; fill: rgb(152,0,0); fill-rule: nonzero; opacity: 1;" transform=" matrix(1 0 0 1 0 0) " stroke-linecap="round" />
	<path d="M 42.45 34.496 c 7.731 3.728 16.936 -0.018 20.266 -5.164 c 3.415 -4.803 3.834 -12.867 -2.069 -20.266 c 9.163 7.599 11.189 16.213 6.63 23.307 C 61.196 40.478 47.706 40.243 42.45 34.496 L 42.45 34.496 z" style="stroke: none; stroke-width: 1; stroke-dasharray: none; stroke-linecap: butt; stroke-linejoin: miter; stroke-miterlimit: 10; fill: rgb(243,244,245); fill-rule: nonzero; opacity: 1;" transform=" matrix(1 0 0 1 0 0) " stroke-linecap="round" />
	<path d="M 56.174 15.636 l 1.556 0.02 l -1.231 0.978 l 0.462 1.53 l -1.284 -0.904 l -1.271 0.925 l 0.439 -1.536 l -1.247 -0.957 l 1.554 -0.046 l 0.499 -1.517 L 56.174 15.636 z M 48.495 25.263 l 1.556 0.02 l -1.231 0.978 l 0.462 1.529 l -1.284 -0.904 l -1.271 0.925 l 0.439 -1.536 l -1.247 -0.957 l 1.554 -0.046 l 0.499 -1.517 L 48.495 25.263 z M 49.001 17.665 l 1.556 0.02 l -1.231 0.978 l 0.462 1.53 l -1.284 -0.904 l -1.271 0.925 l 0.439 -1.536 l -1.247 -0.957 l 1.554 -0.046 l 0.499 -1.517 L 49.001 17.665 z M 49.001 10.063 l 1.556 0.02 l -1.231 0.978 l 0.462 1.53 l -1.284 -0.904 l -1.271 0.925 l 0.439 -1.536 l -1.247 -0.957 l 1.554 -0.046 l 0.499 -1.517 L 49.001 10.063 z M 40.467 19.691 l 1.556 0.02 l -1.231 0.978 l 0.462 1.53 l -1.284 -0.904 l -1.271 0.925 l 0.439 -1.536 l -1.247 -0.957 l 1.554 -0.046 l 0.499 -1.517 L 40.467 19.691 z" style="stroke: none; stroke-width: 1; stroke-dasharray: none; stroke-linecap: butt; stroke-linejoin: miter; stroke-miterlimit: 10; fill: rgb(243,244,245); fill-rule: nonzero; opacity: 1;" transform=" matrix(1 0 0 1 0 0) " stroke-linecap="round" />
	<path d="M 23.765 61.444 h -1.213 v -0.419 H 9.903 v 0.419 H 8.689 v -0.419 H 8.242 v -1.187 H 8.69 V 58.93 H 7.669 v 0.419 H 6.455 V 58.93 H 6.006 v -1.187 h 0.449 v -7.195 H 6.006 v -1.186 h 0.449 v -0.419 h 1.214 v 0.419 H 8.69 v -0.91 H 8.242 v -1.186 h 0.447 v -0.418 h 1.214 v 0.419 h 12.648 v -0.419 h 1.214 v 0.418 h 0.447 v 1.186 h -0.446 v 0.91 h 1.021 v -0.419 h 1.214 v 0.419 h 0.447 v 1.186 h -0.446 v 7.195 h 0.446 v 1.187 h -0.447 l 0 0.419 h -1.213 V 58.93 h -1.021 v 0.909 h 0.446 v 1.187 h -0.447 L 23.765 61.444 z" style="stroke: none; stroke-width: 1; stroke-dasharray: none; stroke-linecap: butt; stroke-linejoin: miter; stroke-miterlimit: 10; fill: rgb(230,153,0); fill-rule: nonzero; opacity: 1;" transform=" matrix(1 0 0 1 0 0) " stroke-linecap="round" />
	<polygon points="24.95,31.14 24.95,30.47 22.06,30.47 22.06,28.46 18.82,28.46 18.82,27.46 13.64,27.46 13.64,28.46 10.39,28.46 10.39,30.47 7.51,30.47 7.51,31.14 4.98,31.14 4.98,37.97 7.51,37.97 7.51,38.64 10.39,38.64 10.39,40.65 13.64,40.65 13.64,41.65 18.82,41.65 18.82,40.65 22.06,40.65 22.06,38.64 24.95,38.64 24.95,37.97 27.47,37.97 27.47,31.14 " style="stroke: none; stroke-width: 1; stroke-dasharray: none; stroke-linecap: butt; stroke-linejoin: miter; stroke-miterlimit: 10; fill: rgb(230,153,0); fill-rule: nonzero; opacity: 1;" transform="  matrix(1 0 0 1 0 0) "/>
	<path d="M 22.073 18.399 h 2.701 l 1.423 -1.283 v -1.22 l 1.341 -1.612 v -3.321 l -1.341 -1.612 v -1.22 l -1.423 -1.282 h -2.701 l -0.487 -0.264 c -5.023 3.067 -9.399 7.087 -12.873 11.814 h 1.667 l 2.206 1.193 l 7.251 0.016 L 22.073 18.399 z" style="stroke: none; stroke-width: 1; stroke-dasharray: none; stroke-linecap: butt; stroke-linejoin: miter; stroke-miterlimit: 10; fill: rgb(230,153,0); fill-rule: nonzero; opacity: 1;" transform=" matrix(1 0 0 1 0 0) " stroke-linecap="round" />
	<path d="M 18.293 78.732 h 6.183 v -1.091 l 1.56 -0.011 V 76.54 h 1.56 v -5.259 h -1.56 V 70.18 l -1.56 0.011 v -1.102 h -6.183 l -2.327 -1.84 l -2.327 1.84 H 7.976 v 1.106 h -0.25 c 2.501 3.689 5.529 6.991 8.986 9.788 L 18.293 78.732 z" style="stroke: none; stroke-width: 1; stroke-dasharray: none; stroke-linecap: butt; stroke-linejoin: miter; stroke-miterlimit: 10; fill: rgb(230,153,0); fill-rule: nonzero; opacity: 1;" transform=" matrix(1 0 0 1 0 0) " stroke-linecap="round" />
</g>
</svg>